<svg width="227" height="63" viewBox="0 0 227 63" fill="none" xmlns="http://www.w3.org/2000/svg">
<path d="M69.3392 36.399H73.7169C74.5337 36.399 75.0567 35.9555 75.0567 35.1703C75.0567 34.385 74.5193 33.9415 73.7169 33.9415H70.8582V27.3397C70.8582 26.3072 70.3065 25.7256 69.3392 25.7256C68.372 25.7256 67.8203 26.3072 67.8203 27.3397V34.7849C67.8203 35.8174 68.372 36.399 69.3392 36.399Z" fill="#444BFF"/>
<path d="M79.046 36.399H83.6243C84.4411 36.399 84.9641 35.9555 84.9641 35.1703C84.9641 34.385 84.4268 33.9415 83.6243 33.9415H80.565V32.262H83.5025C84.2405 32.262 84.699 31.8621 84.699 31.1568C84.699 30.4516 84.2261 30.0517 83.5025 30.0517H80.565V28.3649H83.6243C84.4268 28.3649 84.9641 27.9214 84.9641 27.1361C84.9641 26.3509 84.4411 25.9074 83.6243 25.9074H79.046C78.0788 25.9074 77.5271 26.489 77.5271 27.5215V34.7849C77.5271 35.8174 78.0788 36.399 79.046 36.399Z" fill="#444BFF"/>
<path d="M89.0394 36.5808C89.8634 36.5808 90.3219 36.1518 90.6085 35.0976L90.7876 34.4359H94.155L94.3342 35.1485C94.5921 36.1664 95.0578 36.5808 95.9534 36.5808C96.8347 36.5808 97.4723 35.9555 97.4723 35.083C97.4723 34.7486 97.415 34.4578 97.2717 34.0579L94.936 27.5724C94.4703 26.2782 93.7252 25.7256 92.4283 25.7256C91.2175 25.7256 90.4652 26.3 90.021 27.5724L87.7068 34.0579C87.5706 34.4287 87.4918 34.8213 87.4918 35.0903C87.4918 36.021 88.0722 36.5808 89.0394 36.5808ZM91.3608 32.1384L92.3854 28.3285H92.4427L93.5174 32.1384H91.3608Z" fill="#444BFF"/>
<path d="M101.684 36.5808C102.651 36.5808 103.203 35.9992 103.203 34.9667V32.88H104.414L105.775 35.3448C106.312 36.3118 106.613 36.5808 107.358 36.5808C108.24 36.5808 108.87 35.9919 108.87 35.1703C108.87 34.8068 108.813 34.5668 108.548 34.116L107.466 32.3129C108.447 31.7312 108.934 30.6333 108.934 29.47C108.934 27.2234 107.516 25.9074 104.757 25.9074H101.684C100.717 25.9074 100.165 26.489 100.165 27.5215V34.9667C100.165 35.9992 100.717 36.5808 101.684 36.5808ZM103.203 30.8442V28.1831H104.464C105.28 28.1831 105.832 28.7429 105.832 29.5209C105.832 30.3134 105.309 30.8442 104.457 30.8442H103.203Z" fill="#444BFF"/>
<path d="M113.067 36.5808C113.97 36.5808 114.5 36.0428 114.5 35.054V30.8733H114.557L118.09 35.7374C118.519 36.3336 118.928 36.5808 119.508 36.5808C120.411 36.5808 120.905 36.0791 120.905 35.1557V27.2524C120.905 26.2636 120.382 25.7256 119.472 25.7256C118.57 25.7256 118.039 26.2636 118.039 27.2524V31.3459H117.982L114.479 26.569C114.042 25.9801 113.619 25.7256 113.067 25.7256C112.136 25.7256 111.634 26.22 111.634 27.1507V35.054C111.634 36.0428 112.157 36.5808 113.067 36.5808Z" fill="#444BFF"/>
<path d="M129.586 36.5808C130.553 36.5808 131.105 35.9992 131.105 34.9667V27.3397C131.105 26.3072 130.553 25.7256 129.586 25.7256C128.619 25.7256 128.067 26.3072 128.067 27.3397V34.9667C128.067 35.9992 128.619 36.5808 129.586 36.5808Z" fill="#444BFF"/>
<path d="M135.438 36.5808C136.341 36.5808 136.871 36.0428 136.871 35.054V30.8733H136.929L140.461 35.7374C140.891 36.3336 141.299 36.5808 141.879 36.5808C142.782 36.5808 143.277 36.0791 143.277 35.1557V27.2524C143.277 26.2636 142.754 25.7256 141.844 25.7256C140.941 25.7256 140.411 26.2636 140.411 27.2524V31.3459H140.353L136.85 26.569C136.413 25.9801 135.99 25.7256 135.438 25.7256C134.507 25.7256 134.005 26.22 134.005 27.1507V35.054C134.005 36.0428 134.528 36.5808 135.438 36.5808Z" fill="#444BFF"/>
<path d="M151.957 36.5808C152.925 36.5808 153.476 35.9992 153.476 34.9667V33.5344H154.952C157.367 33.5344 159.007 32.0439 159.007 29.7318C159.007 27.3979 157.46 25.9074 155.16 25.9074H151.957C150.99 25.9074 150.438 26.489 150.438 27.5215V34.9667C150.438 35.9992 150.99 36.5808 151.957 36.5808ZM153.476 31.2586V28.2267H154.35C155.339 28.2267 155.941 28.7429 155.941 29.739C155.941 30.7424 155.339 31.2586 154.329 31.2586H153.476Z" fill="#444BFF"/>
<path d="M163.068 36.5808C164.036 36.5808 164.587 35.9992 164.587 34.9667V32.88H165.798L167.16 35.3448C167.697 36.3118 167.998 36.5808 168.743 36.5808C169.624 36.5808 170.255 35.9919 170.255 35.1703C170.255 34.8068 170.197 34.5668 169.932 34.116L168.85 32.3129C169.832 31.7312 170.319 30.6333 170.319 29.47C170.319 27.2234 168.901 25.9074 166.142 25.9074H163.068C162.101 25.9074 161.55 26.489 161.55 27.5215V34.9667C161.55 35.9992 162.101 36.5808 163.068 36.5808ZM164.587 30.8442V28.1831H165.848C166.665 28.1831 167.217 28.7429 167.217 29.5209C167.217 30.3134 166.694 30.8442 165.841 30.8442H164.587Z" fill="#444BFF"/>
<path d="M177.977 36.5808C181.172 36.5808 183.186 34.5086 183.186 31.1568C183.186 27.805 181.172 25.7256 177.977 25.7256C174.781 25.7256 172.768 27.805 172.768 31.1568C172.768 34.5086 174.774 36.5808 177.977 36.5808ZM177.977 34.1233C176.702 34.1233 175.863 32.9673 175.863 31.1568C175.863 29.3391 176.709 28.1831 177.977 28.1831C179.245 28.1831 180.09 29.3391 180.09 31.1568C180.09 32.9673 179.252 34.1233 177.977 34.1233Z" fill="#444BFF"/>
<path d="M189.332 36.5808C191.846 36.5808 193.351 35.2212 193.351 32.7564V27.3397C193.351 26.3072 192.799 25.7256 191.832 25.7256C190.865 25.7256 190.313 26.3072 190.313 27.3397V32.7346C190.313 33.5635 189.955 33.9997 189.289 33.9997C188.751 33.9997 188.386 33.7089 188.228 33.1781C187.992 32.3856 187.562 32.0439 186.81 32.0439C185.971 32.0439 185.405 32.6037 185.405 33.4471C185.405 33.8179 185.477 34.1451 185.635 34.5305C186.236 35.8392 187.548 36.5808 189.332 36.5808Z" fill="#444BFF"/>
<path d="M197.935 36.399H202.513C203.33 36.399 203.853 35.9555 203.853 35.1703C203.853 34.385 203.316 33.9415 202.513 33.9415H199.454V32.262H202.391C203.129 32.262 203.588 31.8621 203.588 31.1568C203.588 30.4516 203.115 30.0517 202.391 30.0517H199.454V28.3649H202.513C203.316 28.3649 203.853 27.9214 203.853 27.1361C203.853 26.3509 203.33 25.9074 202.513 25.9074H197.935C196.968 25.9074 196.416 26.489 196.416 27.5215V34.7849C196.416 35.8174 196.968 36.399 197.935 36.399Z" fill="#444BFF"/>
<path d="M211.554 36.5808C213.567 36.5808 215.308 35.5702 215.91 34.0506C216.017 33.7816 216.075 33.5053 216.075 33.2435C216.075 32.4219 215.509 31.8839 214.642 31.8839C214.004 31.8839 213.639 32.1384 213.331 32.8C212.893 33.7307 212.313 34.1597 211.482 34.1597C210.221 34.1597 209.44 33.04 209.44 31.1423C209.44 29.2664 210.228 28.1467 211.475 28.1467C212.27 28.1467 212.843 28.5612 213.302 29.4555C213.631 30.1026 214.033 30.3643 214.692 30.3643C215.487 30.3643 216.01 29.8554 216.01 29.0701C216.01 28.6993 215.903 28.314 215.695 27.9504C214.878 26.489 213.417 25.7256 211.439 25.7256C208.315 25.7256 206.345 27.6887 206.345 31.1496C206.345 34.6104 208.272 36.5808 211.554 36.5808Z" fill="#444BFF"/>
<path d="M222.615 36.5808C223.582 36.5808 224.134 35.9992 224.134 34.9667V28.3649H225.66C226.462 28.3649 226.999 27.9214 226.999 27.1361C226.999 26.3509 226.476 25.9074 225.66 25.9074H219.57C218.753 25.9074 218.23 26.3509 218.23 27.1361C218.23 27.9214 218.767 28.3649 219.57 28.3649H221.096V34.9667C221.096 35.9992 221.647 36.5808 222.615 36.5808Z" fill="#444BFF"/>
<g clip-path="url(#clip0_892_6443)">
<path d="M5.2984 48.6422H21.4391C23.9662 48.6422 25.5966 47.2359 25.5966 44.8368C25.5966 42.4378 23.9662 41.0315 21.4391 41.0315H9.94498V15.7176C9.94498 12.5741 8.23308 10.7542 5.2984 10.7542C2.36373 10.7542 0.570312 12.5741 0.570312 15.7176V43.6787C0.570313 46.8222 2.28221 48.6422 5.2984 48.6422Z" fill="#444BFF"/>
<path d="M19.9722 38.4671C22.9069 38.4671 24.6188 36.6472 24.6188 33.5036V4.9635C24.6188 1.81995 22.9069 0 19.9722 0C17.0376 0 15.2441 1.81995 15.2441 4.9635V33.5036C15.3257 36.6472 17.0376 38.4671 19.9722 38.4671Z" fill="#444BFF"/>
<path d="M34.6461 48.6422C37.5807 48.6422 39.2926 46.8222 39.2926 43.6787V37.1434H45.325C53.4769 37.1434 59.1017 31.9317 59.1017 23.9901C59.1017 15.9658 53.7215 10.7542 45.8957 10.7542H34.6461C31.7114 10.7542 29.918 12.5741 29.918 15.7176V43.6787C29.9995 46.8222 31.7114 48.6422 34.6461 48.6422ZM39.3742 30.0291V18.0339H43.4501C47.363 18.0339 49.7271 20.1021 49.7271 23.9901C49.7271 27.8782 47.363 29.9463 43.3686 29.9463H39.3742V30.0291Z" fill="#444BFF"/>
<path d="M35.542 62.7056C30.2433 62.7056 25.1891 60.2239 21.8469 56.0049C20.461 54.1849 20.7056 51.6205 22.499 50.2142C24.2924 48.8078 26.8195 49.056 28.2053 50.876C30.0803 53.275 33.0149 54.5986 36.0311 54.4331C38.4767 54.2677 40.7592 53.1923 42.4711 51.2896C44.183 49.3869 44.9982 46.9879 44.8352 44.4234C44.6721 42.1071 46.384 40.2044 48.6666 40.039C50.8676 39.8735 52.824 41.6107 52.9871 43.927C53.2316 48.6424 51.6828 53.1922 48.585 56.7494C45.4873 60.3066 41.1668 62.4575 36.5203 62.7056C36.1942 62.7056 35.8681 62.7056 35.542 62.7056Z" fill="#444BFF"/>
</g>
<defs>
<clipPath id="clip0_892_6443">
<rect width="59.5088" height="62.871" fill="white"/>
</clipPath>
</defs>
</svg>
