<svg width="227" height="63" viewBox="0 0 227 63" fill="none" xmlns="http://www.w3.org/2000/svg">
<path d="M69.3397 36.399H73.7174C74.5342 36.399 75.0572 35.9555 75.0572 35.1702C75.0572 34.385 74.5198 33.9415 73.7174 33.9415H70.8587V27.3396C70.8587 26.3072 70.307 25.7255 69.3397 25.7255C68.3725 25.7255 67.8208 26.3072 67.8208 27.3396V34.7849C67.8208 35.8173 68.3725 36.399 69.3397 36.399Z" fill="white"/>
<path d="M79.0465 36.399H83.6248C84.4416 36.399 84.9646 35.9555 84.9646 35.1702C84.9646 34.385 84.4272 33.9415 83.6248 33.9415H80.5654V32.2619H83.503C84.241 32.2619 84.6995 31.862 84.6995 31.1568C84.6995 30.4515 84.2266 30.0516 83.503 30.0516H80.5654V28.3648H83.6248C84.4272 28.3648 84.9646 27.9213 84.9646 27.1361C84.9646 26.3508 84.4416 25.9073 83.6248 25.9073H79.0465C78.0793 25.9073 77.5276 26.489 77.5276 27.5214V34.7849C77.5276 35.8173 78.0793 36.399 79.0465 36.399Z" fill="white"/>
<path d="M89.0399 36.5808C89.8639 36.5808 90.3224 36.1518 90.609 35.0975L90.7881 34.4359H94.1555L94.3347 35.1484C94.5926 36.1663 95.0583 36.5808 95.9539 36.5808C96.8352 36.5808 97.4728 35.9555 97.4728 35.083C97.4728 34.7485 97.4155 34.4577 97.2722 34.0578L94.9365 27.5723C94.4708 26.2781 93.7257 25.7255 92.4288 25.7255C91.218 25.7255 90.4657 26.2999 90.0215 27.5723L87.7073 34.0578C87.5711 34.4286 87.4923 34.8212 87.4923 35.0902C87.4923 36.0209 88.0727 36.5808 89.0399 36.5808ZM91.3613 32.1383L92.3858 28.3285H92.4432L93.5179 32.1383H91.3613Z" fill="white"/>
<path d="M101.684 36.5808C102.651 36.5808 103.203 35.9991 103.203 34.9666V32.8799H104.414L105.775 35.3447C106.313 36.3117 106.614 36.5808 107.359 36.5808C108.24 36.5808 108.87 35.9918 108.87 35.1702C108.87 34.8067 108.813 34.5668 108.548 34.116L107.466 32.3128C108.448 31.7312 108.935 30.6333 108.935 29.47C108.935 27.2233 107.516 25.9073 104.758 25.9073H101.684C100.717 25.9073 100.165 26.489 100.165 27.5214V34.9666C100.165 35.9991 100.717 36.5808 101.684 36.5808ZM103.203 30.8441V28.183H104.464C105.281 28.183 105.833 28.7429 105.833 29.5209C105.833 30.3134 105.31 30.8441 104.457 30.8441H103.203Z" fill="white"/>
<path d="M113.068 36.5808C113.97 36.5808 114.501 36.0427 114.501 35.0539V30.8732H114.558L118.09 35.7373C118.52 36.3335 118.928 36.5808 119.509 36.5808C120.411 36.5808 120.906 36.0791 120.906 35.1557V27.2524C120.906 26.2636 120.383 25.7255 119.473 25.7255C118.57 25.7255 118.04 26.2636 118.04 27.2524V31.3458H117.983L114.479 26.5689C114.042 25.98 113.619 25.7255 113.068 25.7255C112.136 25.7255 111.635 26.2199 111.635 27.1506V35.0539C111.635 36.0427 112.158 36.5808 113.068 36.5808Z" fill="white"/>
<path d="M129.587 36.5808C130.554 36.5808 131.106 35.9991 131.106 34.9666V27.3396C131.106 26.3072 130.554 25.7255 129.587 25.7255C128.619 25.7255 128.068 26.3072 128.068 27.3396V34.9666C128.068 35.9991 128.619 36.5808 129.587 36.5808Z" fill="white"/>
<path d="M135.439 36.5808C136.342 36.5808 136.872 36.0427 136.872 35.0539V30.8732H136.929L140.461 35.7373C140.891 36.3335 141.3 36.5808 141.88 36.5808C142.783 36.5808 143.277 36.0791 143.277 35.1557V27.2524C143.277 26.2636 142.754 25.7255 141.844 25.7255C140.941 25.7255 140.411 26.2636 140.411 27.2524V31.3458H140.354L136.85 26.5689C136.413 25.98 135.99 25.7255 135.439 25.7255C134.507 25.7255 134.006 26.2199 134.006 27.1506V35.0539C134.006 36.0427 134.529 36.5808 135.439 36.5808Z" fill="white"/>
<path d="M151.958 36.5808C152.925 36.5808 153.477 35.9991 153.477 34.9666V33.5343H154.953C157.367 33.5343 159.008 32.0438 159.008 29.7317C159.008 27.3978 157.46 25.9073 155.16 25.9073H151.958C150.991 25.9073 150.439 26.489 150.439 27.5214V34.9666C150.439 35.9991 150.991 36.5808 151.958 36.5808ZM153.477 31.2586V28.2267H154.351C155.34 28.2267 155.941 28.7429 155.941 29.739C155.941 30.7423 155.34 31.2586 154.329 31.2586H153.477Z" fill="white"/>
<path d="M163.069 36.5808C164.036 36.5808 164.588 35.9991 164.588 34.9666V32.8799H165.799L167.16 35.3447C167.697 36.3117 167.998 36.5808 168.743 36.5808C169.625 36.5808 170.255 35.9918 170.255 35.1702C170.255 34.8067 170.198 34.5668 169.933 34.116L168.851 32.3128C169.832 31.7312 170.32 30.6333 170.32 29.47C170.32 27.2233 168.901 25.9073 166.143 25.9073H163.069C162.102 25.9073 161.55 26.489 161.55 27.5214V34.9666C161.55 35.9991 162.102 36.5808 163.069 36.5808ZM164.588 30.8441V28.183H165.849C166.666 28.183 167.217 28.7429 167.217 29.5209C167.217 30.3134 166.694 30.8441 165.842 30.8441H164.588Z" fill="white"/>
<path d="M177.977 36.5808C181.173 36.5808 183.186 34.5086 183.186 31.1568C183.186 27.805 181.173 25.7255 177.977 25.7255C174.782 25.7255 172.769 27.805 172.769 31.1568C172.769 34.5086 174.775 36.5808 177.977 36.5808ZM177.977 34.1232C176.702 34.1232 175.864 32.9672 175.864 31.1568C175.864 29.3391 176.709 28.183 177.977 28.183C179.245 28.183 180.091 29.3391 180.091 31.1568C180.091 32.9672 179.253 34.1232 177.977 34.1232Z" fill="white"/>
<path d="M189.332 36.5808C191.847 36.5808 193.351 35.2211 193.351 32.7563V27.3396C193.351 26.3072 192.8 25.7255 191.833 25.7255C190.865 25.7255 190.314 26.3072 190.314 27.3396V32.7345C190.314 33.5634 189.955 33.9996 189.289 33.9996C188.752 33.9996 188.386 33.7088 188.229 33.178C187.992 32.3855 187.562 32.0438 186.81 32.0438C185.972 32.0438 185.406 32.6037 185.406 33.4471C185.406 33.8179 185.477 34.1451 185.635 34.5304C186.237 35.8391 187.548 36.5808 189.332 36.5808Z" fill="white"/>
<path d="M197.935 36.399H202.514C203.33 36.399 203.854 35.9555 203.854 35.1702C203.854 34.385 203.316 33.9415 202.514 33.9415H199.454V32.2619H202.392C203.13 32.2619 203.588 31.862 203.588 31.1568C203.588 30.4515 203.116 30.0516 202.392 30.0516H199.454V28.3648H202.514C203.316 28.3648 203.854 27.9213 203.854 27.1361C203.854 26.3508 203.33 25.9073 202.514 25.9073H197.935C196.968 25.9073 196.417 26.489 196.417 27.5214V34.7849C196.417 35.8173 196.968 36.399 197.935 36.399Z" fill="white"/>
<path d="M211.554 36.5808C213.567 36.5808 215.309 35.5701 215.91 34.0505C216.018 33.7815 216.075 33.5052 216.075 33.2435C216.075 32.4219 215.509 31.8838 214.642 31.8838C214.005 31.8838 213.639 32.1383 213.331 32.8C212.894 33.7306 212.314 34.1596 211.483 34.1596C210.222 34.1596 209.441 33.0399 209.441 31.1422C209.441 29.2664 210.229 28.1467 211.475 28.1467C212.271 28.1467 212.844 28.5611 213.302 29.4554C213.632 30.1025 214.033 30.3643 214.692 30.3643C215.488 30.3643 216.011 29.8553 216.011 29.0701C216.011 28.6993 215.903 28.3139 215.695 27.9504C214.879 26.489 213.417 25.7255 211.44 25.7255C208.316 25.7255 206.345 27.6886 206.345 31.1495C206.345 34.6104 208.273 36.5808 211.554 36.5808Z" fill="white"/>
<path d="M222.615 36.5808C223.582 36.5808 224.134 35.9991 224.134 34.9666V28.3648H225.66C226.463 28.3648 227 27.9213 227 27.1361C227 26.3508 226.477 25.9073 225.66 25.9073H219.57C218.753 25.9073 218.23 26.3508 218.23 27.1361C218.23 27.9213 218.768 28.3648 219.57 28.3648H221.096V34.9666C221.096 35.9991 221.648 36.5808 222.615 36.5808Z" fill="white"/>
<g clip-path="url(#clip0_336_8157)">
<path d="M5.29865 48.6423H21.4394C23.9665 48.6423 25.5968 47.236 25.5968 44.8369C25.5968 42.4379 23.9665 41.0316 21.4394 41.0316H9.94522V15.7177C9.94522 12.5742 8.23333 10.7542 5.29865 10.7542C2.36397 10.7542 0.570557 12.5742 0.570557 15.7177V43.6788C0.570557 46.8223 2.28245 48.6423 5.29865 48.6423Z" fill="white"/>
<path d="M19.9722 38.4671C22.9069 38.4671 24.6188 36.6472 24.6188 33.5036V4.9635C24.6188 1.81995 22.9069 0 19.9722 0C17.0376 0 15.2441 1.81995 15.2441 4.9635V33.5036C15.3257 36.6472 17.0376 38.4671 19.9722 38.4671Z" fill="white"/>
<path d="M34.6456 48.6423C37.5803 48.6423 39.2922 46.8223 39.2922 43.6788V37.1435H45.3245C53.4764 37.1435 59.1012 31.9318 59.1012 23.9902C59.1012 15.9659 53.721 10.7542 45.8952 10.7542H34.6456C31.7109 10.7542 29.9175 12.5742 29.9175 15.7177V43.6788C29.999 46.8223 31.7109 48.6423 34.6456 48.6423ZM39.3737 30.0292V18.034H43.4496C47.3625 18.034 49.7266 20.1022 49.7266 23.9902C49.7266 27.8783 47.3625 29.9464 43.3681 29.9464H39.3737V30.0292Z" fill="white"/>
<path d="M35.5423 62.7055C30.2435 62.7055 25.1894 60.2238 21.8471 56.0048C20.4613 54.1849 20.7058 51.6204 22.4992 50.2141C24.2927 48.8077 26.8197 49.0559 28.2056 50.8759C30.0805 53.2749 33.0152 54.5985 36.0314 54.433C38.477 54.2676 40.7595 53.1922 42.4714 51.2895C44.1833 49.3868 44.9985 46.9878 44.8354 44.4233C44.6724 42.107 46.3843 40.2043 48.6668 40.0389C50.8678 39.8734 52.8243 41.6107 52.9873 43.927C53.2319 48.6423 51.683 53.1922 48.5853 56.7493C45.4876 60.3065 41.1671 62.4574 36.5205 62.7055C36.1944 62.7055 35.8683 62.7055 35.5423 62.7055Z" fill="white"/>
</g>
<defs>
<clipPath id="clip0_336_8157">
<rect width="59.5088" height="62.871" fill="white"/>
</clipPath>
</defs>
</svg>
